HIERARCHY
ROOT Hips
{
   OFFSET 0.00000 0.00000 0.00000
   CHANNELS 6 Xposition Yposition Zposition Zrotation Xrotation Yrotation
   JOINT RightUpLeg
   {
      OFFSET -11.629540 -11.267191 0.132148
      CHANNELS 3 Zrotation Xrotation Yrotation
      JOINT RightLeg
      {
         OFFSET 0.000000 -57.749504 1.784510
         CHANNELS 3 Zrotation Xrotation Yrotation
         JOINT RightFoot
         {
            OFFSET 0.329614 -54.720115 -1.898767
            CHANNELS 3 Zrotation Xrotation Yrotation
            JOINT RightToes
            {
               OFFSET 0.052000 -5.739617 11.048829
               CHANNELS 3 Zrotation Xrotation Yrotation
               End Site
               {
                  OFFSET -0.104000 -0.178682 12.713727
               }
            }
         }
      }
   }
   JOINT Spine
   {
      OFFSET 0.000000 15.457650 0.000000
      CHANNELS 3 Zrotation Xrotation Yrotation
      JOINT Spine1
      {
         OFFSET 0.000000 33.354620 0.165962
         CHANNELS 3 Zrotation Xrotation Yrotation
         JOINT HEad
         {
            OFFSET 0.000000 11.354408 0.014743
            CHANNELS 3 Zrotation Xrotation Yrotation
            End Site
            {
               OFFSET -0.377000 16.606459 3.268135
            }
         }
         JOINT LeftShoulder1
         {
            OFFSET 11.687000 -0.470928 -0.286000
            CHANNELS 3 Zrotation Xrotation Yrotation
            JOINT LeftArm
            {
               OFFSET 13.367510 -0.004394 0.418760
               CHANNELS 3 Zrotation Xrotation Yrotation
               JOINT LeftForeArm
               {
                  OFFSET 42.596969 0.128887 -1.851642
                  CHANNELS 3 Zrotation Xrotation Yrotation
                  JOINT LeftHand
                  {
                     OFFSET 35.833589 0.110971 1.328808
                     CHANNELS 3 Zrotation Xrotation Yrotation
                     End Site
                     {
                        OFFSET 21.767590 -0.780000 1.953783
                     }
                  }
               }
            }
         }
         JOINT RightShoulder
         {
            OFFSET -11.687000 -0.470928 -0.286000
            CHANNELS 3 Zrotation Xrotation Yrotation
            JOINT RightArm
            {
               OFFSET -13.367510 -0.004394 0.418760
               CHANNELS 3 Zrotation Xrotation Yrotation
               JOINT RightForeArm
               {
                  OFFSET -42.766227 0.128887 -1.851642
                  CHANNELS 3 Zrotation Xrotation Yrotation
                  JOINT RightHand
                  {
                     OFFSET -35.739729 0.110971 1.328808
                     CHANNELS 3 Zrotation Xrotation Yrotation
                     End Site
                     {
                        OFFSET -21.620562 -0.780000 1.953783
                     }
                  }
               }
            }
         }
      }
   }
   JOINT LeftUpLeg
   {
      OFFSET 11.629540 -11.267191 0.132148
      CHANNELS 3 Zrotation Xrotation Yrotation
      JOINT LeftLeg
      {
         OFFSET 0.000000 -57.749504 1.784510
         CHANNELS 3 Zrotation Xrotation Yrotation
         JOINT LeftFoot
         {
            OFFSET -0.329614 -54.720115 -1.898767
            CHANNELS 3 Zrotation Xrotation Yrotation
            JOINT LeftToes
            {
               OFFSET -0.052000 -5.739617 11.048829
               CHANNELS 3 Zrotation Xrotation Yrotation
               End Site
               {
                  OFFSET 0.104000 -0.061682 12.713727
               }
            }
         }
      }
   }
}
MOTION
Frames: 7
Frame Time: 0.016667
-181.983316 109.348934 -518.485596 440.001633 -75.768252 429.883090 -38.277729 48.313828 72.784490 20.292021 17.685130 4.659033 -68.170185 42.428930 14.914620 15.907166 -29.102094 -30.121814 54.896795 82.484670 86.855390 15.011031 0.920080 -144.326924 23.899086 5.801248 3.157720 17.308360 225.032303 2.657287 466.331275 -44.673774 503.951684 75.043712 -26.125759 94.632025 -150.877786 -75.533156 -187.129561 2.132871 31.971962 37.454203 65.345028 126.229464 239.463372 56.576257 207.502035 75.837776 -12.406694 -51.846907 17.416713 -13.297002 31.300230 65.406042 30.169321 31.078566 31.466825 -52.847209 40.923495 10.536172 16.498583 -24.196486 -42.630134
-181.107137 110.131167 -521.818649 420.841313 -79.142256 408.606723 -35.931204 47.525976 71.733126 18.419333 17.873830 4.783590 -67.771698 38.478325 13.193554 16.150686 -28.778381 -29.290877 54.226320 86.074911 83.796306 15.529927 0.849563 -138.501893 16.633047 16.048045 7.263669 17.123460 226.440237 1.463177 459.075592 -48.644061 500.691607 79.474360 -24.999286 101.268093 -153.839875 -77.316744 -190.129722 6.554283 28.879679 35.420832 63.747610 128.924861 245.144560 60.189396 208.037686 80.327806 -16.808353 -51.156676 3.304883 -12.475221 35.865846 58.237417 31.603760 29.682687 22.101524 -56.807844 41.115519 11.291828 18.557235 -24.029261 -44.068507
-180.174310 111.600474 -525.270721 398.056485 -81.904131 383.283906 -32.903272 45.839527 71.077926 15.844290 19.166197 5.492335 -52.820397 31.449777 7.514624 16.330086 -29.491777 -29.218781 50.931057 90.986630 81.762548 14.892128 2.152430 -133.080512 12.048094 20.145042 11.864690 18.132376 227.364006 -3.150552 451.038536 -49.737243 491.941643 82.299797 -24.663222 109.479265 -152.134500 -75.128714 -191.505035 9.129644 23.933101 35.565345 61.033068 131.777299 252.077885 65.743439 210.803776 86.251629 -15.829226 -62.479989 18.347787 -10.306574 39.801876 52.714311 28.784125 30.832560 19.115948 -60.170128 42.111846 13.755412 19.883622 -23.291174 -43.313631
-179.355676 112.845324 -528.459541 367.695939 -84.606967 349.327020 -32.486128 46.561038 71.846412 12.663428 21.151525 7.502756 -37.956311 25.974038 3.620051 16.642476 -29.436934 -27.932453 46.183656 98.936923 79.276640 12.024137 1.735506 -127.911603 9.702693 20.502001 15.102013 20.951433 222.924424 -8.635603 442.175054 -47.796154 480.295952 86.326085 -24.500995 117.405051 -154.399705 -76.783518 -191.817803 14.128503 18.334282 28.443821 55.955672 139.142305 258.135880 75.250373 209.526558 90.339080 -19.809719 -64.987310 10.184434 -11.883609 44.796404 48.966617 25.880125 31.460148 14.137474 -50.424609 40.428313 13.821701 20.404290 -23.762337 -41.982410
-178.635080 114.093331 -531.657860 323.445138 -86.928262 305.120451 -34.454643 51.984662 72.944269 12.215181 21.701307 10.055194 -42.057764 27.162192 3.546712 18.317970 -25.992374 -26.095052 39.063436 107.286221 78.181631 12.499972 1.177734 -122.610720 8.901231 20.019855 17.347811 25.425649 216.884734 -13.112589 430.819728 -45.750960 468.701187 90.764219 -23.524930 126.200722 -153.437276 -76.348524 -192.359191 16.541632 13.064794 30.614615 53.929767 139.785149 264.968036 77.577500 211.020798 92.497625 -19.937151 -76.247014 18.037939 -16.360250 53.041214 42.409997 20.945699 31.456890 13.842341 -40.481804 38.222910 12.841311 20.875457 -22.473025 -40.401652
-177.978112 115.480955 -534.582283 272.340980 -88.288330 255.004512 -38.828891 54.524287 73.564013 12.661462 19.070636 9.048760 -36.195221 28.548242 4.031052 20.140307 -23.596085 -25.374957 31.857635 113.330235 78.655782 18.289368 0.867827 -115.494770 9.605555 24.801949 17.696697 30.021229 207.450207 -14.118561 418.869137 -40.551690 456.025831 95.809386 -20.912571 132.880565 -154.305352 -77.681046 -194.348580 19.118476 8.659138 30.869190 49.049737 139.965684 271.878166 83.304833 209.306585 94.737688 -22.595007 -81.104255 10.870304 -21.469132 59.073418 34.329668 12.819475 29.915904 18.120770 -28.713402 38.072369 11.462611 22.102420 -18.467187 -39.303309
-177.242791 116.881931 -537.216751 225.864329 -88.334659 211.884899 -40.718654 58.363570 71.070106 13.582432 18.669938 4.919343 -39.905315 27.282540 2.649846 21.794533 -22.668025 -26.778627 25.599187 113.429047 76.662637 19.870776 0.366334 -111.957538 12.934945 22.453364 18.078397 33.386234 199.135053 -17.359349 405.135457 -33.083620 440.952942 98.891112 -21.817899 142.352945 -151.612946 -77.320173 -197.665743 18.974095 3.821659 33.274431 48.791730 143.464613 276.031194 88.277012 210.333367 97.772703 -21.889805 -87.667575 12.639867 -25.890165 63.217472 25.281288 7.800664 28.090254 21.149264 -17.497418 35.314359 9.322764 22.428635 -16.030934 -38.209137
